PathFileType	4	(X/Y/Z)	output.trc
DataRate	CameraRate	NumFrames	NumMarkers	Units	OrigDataRate	OrigDataStartFrame	OrigNumFrames
120	120	24	17	m	120	1679	4477
Frame#	Time	Elbow_Midpoint			GH			Wrist_Midpoint			US			RS			C7			EM			EL			T8			SC			AC			AI			TS			AA			IJx			PX00			PC
		X1	Y1	Z1	X2	Y2	Z2	X3	Y3	Z3	X4	Y4	Z4	X5	Y5	Z5	X6	Y6	Z6	X7	Y7	Z7	X8	Y8	Z8	X9	Y9	Z9	X10	Y10	Z10	X11	Y11	Z11	X12	Y12	Z12	X13	Y13	Z13	X14	Y14	Z14	X15	Y15	Z15	X16	Y16	Z16	X17	Y17	Z17
1678	13.983333	0.354667	0.906775	-0.484918	0.322166	1.169553	-0.485876	0.425470	0.691979	-0.525822	0.437706	0.693784	-0.506723	0.413234	0.690174	-0.544920	0.166409	1.304707	-0.463895	0.337852	0.903876	-0.451331	0.385579	0.895092	-0.486529	0.145507	1.079266	-0.383106	0.172203	1.206168	-0.524539	0.293805	1.221689	-0.492142	0.227976	1.088821	-0.378346	0.226094	1.245054	-0.415848	0.341714	1.202534	-0.487210	0.159244	1.209278	-0.528131	0.140221	1.021336	-0.569316	0.281343	1.185287	-0.510762
1679	13.991667	0.354733	0.906757	-0.485211	0.321985	1.169451	-0.485439	0.425374	0.692048	-0.526842	0.437613	0.693780	-0.507738	0.413134	0.690316	-0.545945	0.166365	1.304680	-0.463864	0.337972	0.903684	-0.451744	0.385746	0.895075	-0.486922	0.145303	1.079268	-0.383035	0.172212	1.206121	-0.524471	0.293769	1.221585	-0.491964	0.228116	1.088892	-0.377863	0.226041	1.245039	-0.415712	0.341702	1.202498	-0.486997	0.159259	1.209234	-0.528081	0.140241	1.021284	-0.569234	0.281348	1.185127	-0.510501
1680	14.000000	0.354818	0.906745	-0.485601	0.321893	1.169377	-0.485077	0.425308	0.692147	-0.528055	0.437557	0.693801	-0.508951	0.413058	0.690493	-0.547159	0.166323	1.304654	-0.463829	0.338087	0.903522	-0.452175	0.385889	0.895061	-0.487351	0.145121	1.079270	-0.382960	0.172218	1.206076	-0.524401	0.293730	1.221491	-0.491795	0.228235	1.088982	-0.377390	0.225990	1.245043	-0.415584	0.341684	1.202466	-0.486794	0.159269	1.209191	-0.528027	0.140257	1.021234	-0.569148	0.281345	1.184979	-0.510249
1681	14.008333	0.354925	0.906736	-0.486099	0.321876	1.169327	-0.484795	0.425277	0.692277	-0.529472	0.437546	0.693850	-0.510374	0.413007	0.690704	-0.548569	0.166284	1.304629	-0.463793	0.338204	0.903387	-0.452655	0.386018	0.895052	-0.487844	0.144960	1.079272	-0.382881	0.172220	1.206033	-0.524331	0.293688	1.221411	-0.491632	0.228325	1.089090	-0.376933	0.225937	1.245066	-0.415462	0.341659	1.202438	-0.486596	0.159276	1.209149	-0.527970	0.140270	1.021184	-0.569058	0.281332	1.184848	-0.510006
1682	14.016667	0.355052	0.906731	-0.486714	0.321923	1.169299	-0.484591	0.425284	0.692439	-0.531100	0.437584	0.693929	-0.512016	0.412984	0.690949	-0.550185	0.166244	1.304605	-0.463755	0.338324	0.903275	-0.453200	0.386135	0.895051	-0.488419	0.144817	1.079274	-0.382796	0.172218	1.205990	-0.524259	0.293642	1.221342	-0.491473	0.228386	1.089207	-0.376500	0.225881	1.245103	-0.415345	0.341627	1.202414	-0.486404	0.159277	1.209107	-0.527911	0.140279	1.021132	-0.568959	0.281311	1.184733	-0.509772
1683	14.025000	0.355198	0.906728	-0.487456	0.322016	1.169288	-0.484460	0.425332	0.692636	-0.532949	0.437673	0.694041	-0.513884	0.412990	0.691231	-0.552013	0.166202	1.304581	-0.463717	0.338453	0.903177	-0.453832	0.386247	0.895057	-0.489099	0.144688	1.079279	-0.382703	0.172211	1.205947	-0.524185	0.293593	1.221282	-0.491318	0.228428	1.089320	-0.376094	0.225820	1.245141	-0.415231	0.341590	1.202395	-0.486215	0.159273	1.209065	-0.527847	0.140286	1.021079	-0.568852	0.281284	1.184631	-0.509547
1684	14.033333	0.355366	0.906730	-0.488337	0.322129	1.169286	-0.484374	0.425419	0.692870	-0.535024	0.437812	0.694188	-0.515987	0.413026	0.691552	-0.554062	0.166156	1.304557	-0.463673	0.338599	0.903081	-0.454585	0.386363	0.895072	-0.489916	0.144571	1.079282	-0.382603	0.172199	1.205904	-0.524107	0.293541	1.221227	-0.491166	0.228466	1.089414	-0.375721	0.225753	1.245168	-0.415119	0.341552	1.202380	-0.486032	0.159264	1.209021	-0.527779	0.140290	1.021024	-0.568737	0.281257	1.184537	-0.509334
1685	14.041667	0.355552	0.906741	-0.489362	0.322232	1.169280	-0.484296	0.425543	0.693144	-0.537335	0.437994	0.694372	-0.518330	0.413092	0.691917	-0.556340	0.166105	1.304530	-0.463620	0.338772	0.902971	-0.455492	0.386499	0.895097	-0.490903	0.144462	1.079279	-0.382499	0.172180	1.205860	-0.524022	0.293488	1.221172	-0.491018	0.228517	1.089474	-0.375384	0.225680	1.245168	-0.415006	0.341513	1.202372	-0.485856	0.159248	1.208976	-0.527703	0.140292	1.020968	-0.568619	0.281234	1.184446	-0.509133
1686	14.050000	0.355754	0.906761	-0.490536	0.322294	1.169258	-0.484181	0.425704	0.693466	-0.539891	0.438215	0.694597	-0.520919	0.413192	0.692335	-0.558863	0.166047	1.304501	-0.463554	0.338985	0.902832	-0.456577	0.386671	0.895136	-0.492085	0.144362	1.079268	-0.382393	0.172155	1.205816	-0.523930	0.293433	1.221118	-0.490873	0.228595	1.089490	-0.375084	0.225600	1.245135	-0.414890	0.341477	1.202372	-0.485689	0.159224	1.208932	-0.527618	0.140290	1.020914	-0.568501	0.281216	1.184358	-0.508945
1687	14.058333	0.355968	0.906794	-0.491860	0.322291	1.169213	-0.484002	0.425897	0.693841	-0.542698	0.438466	0.694868	-0.523758	0.413327	0.692814	-0.561637	0.165984	1.304469	-0.463474	0.339245	0.902657	-0.457856	0.386887	0.895192	-0.493470	0.144268	1.079249	-0.382283	0.172124	1.205774	-0.523830	0.293374	1.221066	-0.490732	0.228709	1.089463	-0.374818	0.225518	1.245068	-0.414765	0.341442	1.202384	-0.485535	0.159195	1.208888	-0.527525	0.140286	1.020863	-0.568383	0.281201	1.184274	-0.508769
1688	14.066667	0.356196	0.906848	-0.493344	0.322217	1.169144	-0.483755	0.426115	0.694274	-0.545756	0.438738	0.695187	-0.526846	0.413492	0.693362	-0.564665	0.165917	1.304435	-0.463382	0.339547	0.902448	-0.459331	0.387151	0.895272	-0.495057	0.144182	1.079226	-0.382171	0.172088	1.205733	-0.523722	0.293309	1.221018	-0.490592	0.228862	1.089399	-0.374576	0.225436	1.244972	-0.414625	0.341406	1.202410	-0.485394	0.159160	1.208846	-0.527423	0.140281	1.020814	-0.568264	0.281186	1.184197	-0.508603
1689	14.075000	0.356436	0.906932	-0.494996	0.322083	1.169054	-0.483457	0.426351	0.694772	-0.549063	0.439021	0.695560	-0.530179	0.413682	0.693983	-0.567947	0.165848	1.304402	-0.463279	0.339877	0.902217	-0.461001	0.387451	0.895379	-0.496832	0.144106	1.079198	-0.382054	0.172048	1.205695	-0.523608	0.293237	1.220979	-0.490453	0.229059	1.089304	-0.374350	0.225359	1.244855	-0.414466	0.341366	1.202452	-0.485268	0.159121	1.208806	-0.527313	0.140272	1.020769	-0.568144	0.281165	1.184131	-0.508442
1690	14.083333	0.356682	0.907050	-0.496824	0.321909	1.168954	-0.483141	0.426601	0.695339	-0.552620	0.439309	0.695993	-0.533757	0.413892	0.694684	-0.571483	0.165780	1.304370	-0.463165	0.340220	0.901977	-0.462860	0.387778	0.895519	-0.498783	0.144042	1.079167	-0.381933	0.172005	1.205660	-0.523487	0.293155	1.220951	-0.490314	0.229297	1.089189	-0.374135	0.225288	1.244723	-0.414284	0.341321	1.202512	-0.485160	0.159079	1.208770	-0.527196	0.140260	1.020728	-0.568021	0.281137	1.184077	-0.508286
1691	14.091667	0.356917	0.907200	-0.498824	0.321716	1.168851	-0.482839	0.426860	0.695982	-0.556428	0.439600	0.696493	-0.537582	0.414119	0.695471	-0.575274	0.165714	1.304338	-0.463041	0.340563	0.901743	-0.464899	0.388119	0.895694	-0.500897	0.143990	1.079135	-0.381809	0.171960	1.205628	-0.523361	0.293063	1.220939	-0.490178	0.229573	1.089059	-0.373931	0.225226	1.244583	-0.414081	0.341269	1.202592	-0.485071	0.159034	1.208737	-0.527071	0.140244	1.020692	-0.567896	0.281097	1.184041	-0.508137
1692	14.100000	0.357125	0.907380	-0.500986	0.321523	1.168756	-0.482584	0.427125	0.696708	-0.560490	0.439891	0.697066	-0.541658	0.414359	0.696349	-0.579322	0.165650	1.304309	-0.462910	0.340893	0.901532	-0.467106	0.388460	0.895908	-0.503156	0.143949	1.079102	-0.381681	0.171913	1.205600	-0.523230	0.292961	1.220944	-0.490050	0.229879	1.088913	-0.373751	0.225171	1.244437	-0.413865	0.341211	1.202694	-0.485005	0.158987	1.208707	-0.526941	0.140223	1.020661	-0.567769	0.281048	1.184026	-0.508001
1693	14.108333	0.357302	0.907591	-0.503305	0.321352	1.168680	-0.482399	0.427392	0.697523	-0.564806	0.440180	0.697720	-0.545986	0.414603	0.697326	-0.583625	0.165586	1.304282	-0.462769	0.341199	0.901356	-0.469463	0.388786	0.896161	-0.505551	0.143919	1.079069	-0.381549	0.171862	1.205576	-0.523093	0.292853	1.220968	-0.489932	0.230213	1.088750	-0.373607	0.225120	1.244281	-0.413641	0.341147	1.202817	-0.484964	0.158935	1.208682	-0.526804	0.140197	1.020634	-0.567639	0.280992	1.184033	-0.507884
1694	14.116667	0.357461	0.907843	-0.505783	0.321223	1.168634	-0.482288	0.427652	0.698432	-0.569371	0.440463	0.698460	-0.550565	0.414842	0.698404	-0.588176	0.165521	1.304257	-0.462622	0.341473	0.901227	-0.471963	0.389084	0.896458	-0.508080	0.143903	1.079035	-0.381412	0.171806	1.205556	-0.522952	0.292739	1.221006	-0.489825	0.230575	1.088565	-0.373498	0.225075	1.244114	-0.413411	0.341081	1.202959	-0.484947	0.158878	1.208659	-0.526662	0.140167	1.020611	-0.567505	0.280932	1.184058	-0.507785
1695	14.125000	0.357613	0.908148	-0.508423	0.321144	1.168619	-0.482233	0.427901	0.699440	-0.574180	0.440735	0.699292	-0.555391	0.415067	0.699589	-0.592969	0.165455	1.304234	-0.462466	0.341713	0.901145	-0.474609	0.389344	0.896800	-0.510752	0.143906	1.079001	-0.381269	0.171745	1.205539	-0.522807	0.292622	1.221051	-0.489725	0.230969	1.088363	-0.373408	0.225039	1.243935	-0.413173	0.341015	1.203111	-0.484947	0.158815	1.208640	-0.526512	0.140133	1.020591	-0.567366	0.280870	1.184091	-0.507698
1696	14.133333	0.357766	0.908513	-0.511224	0.321108	1.168631	-0.482205	0.428133	0.700553	-0.579228	0.440994	0.700222	-0.560460	0.415271	0.700883	-0.597995	0.165388	1.304213	-0.462304	0.341922	0.901111	-0.477409	0.389565	0.897192	-0.513584	0.143930	1.078967	-0.381118	0.171677	1.205525	-0.522656	0.292509	1.221091	-0.489628	0.231402	1.088147	-0.373316	0.225016	1.243739	-0.412925	0.340954	1.203265	-0.484959	0.158745	1.208623	-0.526355	0.140093	1.020573	-0.567218	0.280812	1.184120	-0.507612
1697	14.141667	0.357926	0.908943	-0.514180	0.321099	1.168660	-0.482183	0.428342	0.701772	-0.584505	0.441236	0.701253	-0.565765	0.415448	0.702291	-0.603246	0.165323	1.304191	-0.462132	0.342105	0.901118	-0.480368	0.389753	0.897637	-0.516583	0.143972	1.078930	-0.380959	0.171602	1.205512	-0.522499	0.292404	1.221120	-0.489532	0.231880	1.087914	-0.373215	0.225011	1.243525	-0.412671	0.340905	1.203415	-0.484978	0.158668	1.208607	-0.526191	0.140041	1.020556	-0.567064	0.280767	1.184134	-0.507525
1698	14.150000	0.358096	0.909440	-0.517283	0.321094	1.168696	-0.482158	0.428524	0.703102	-0.590002	0.441458	0.702390	-0.571295	0.415590	0.703814	-0.608709	0.165264	1.304166	-0.461949	0.342271	0.901165	-0.483484	0.389914	0.898140	-0.519746	0.144023	1.078887	-0.380797	0.171522	1.205498	-0.522336	0.292313	1.221135	-0.489439	0.232403	1.087665	-0.373105	0.225024	1.243290	-0.412414	0.340871	1.203559	-0.485005	0.158584	1.208590	-0.526018	0.139971	1.020542	-0.566908	0.280737	1.184132	-0.507439
1699	14.158333	0.358273	0.910008	-0.520523	0.321075	1.168736	-0.482135	0.428675	0.704546	-0.595703	0.441658	0.703638	-0.577039	0.415691	0.705454	-0.614367	0.165214	1.304134	-0.461755	0.342425	0.901254	-0.486740	0.390054	0.898704	-0.523058	0.144073	1.078835	-0.380635	0.171437	1.205480	-0.522169	0.292233	1.221138	-0.489349	0.232964	1.087405	-0.372990	0.225056	1.243040	-0.412154	0.340851	1.203696	-0.485039	0.158495	1.208571	-0.525840	0.139876	1.020529	-0.566755	0.280722	1.184118	-0.507353
1700	14.166667	0.358464	0.910660	-0.523900	0.321036	1.168783	-0.482131	0.428788	0.706108	-0.601593	0.441831	0.705002	-0.582982	0.415744	0.707214	-0.620205	0.165176	1.304093	-0.461552	0.342572	0.901395	-0.490114	0.390173	0.899336	-0.526497	0.144114	1.078770	-0.380476	0.171349	1.205456	-0.521999	0.292162	1.221136	-0.489259	0.233556	1.087141	-0.372866	0.225109	1.242784	-0.411886	0.340840	1.203830	-0.485080	0.158404	1.208548	-0.525657	0.139755	1.020517	-0.566609	0.280714	1.184097	-0.507265
1701	14.175000	0.358684	0.911412	-0.527414	0.320980	1.168843	-0.482157	0.428857	0.707796	-0.607660	0.441971	0.706491	-0.589111	0.415743	0.709101	-0.626209	0.165149	1.304045	-0.461342	0.342712	0.901597	-0.493592	0.390274	0.900041	-0.530052	0.144149	1.078696	-0.380324	0.171260	1.205428	-0.521829	0.292093	1.221135	-0.489165	0.234172	1.086885	-0.372723	0.225182	1.242534	-0.411598	0.340831	1.203964	-0.485126	0.158312	1.208522	-0.525474	0.139614	1.020506	-0.566472	0.280702	1.184079	-0.507169
